Coordinates
version=1
nRows=11
nColumns=40
inDegrees=yes

Units are S.I. units (second, meters, Newtons, ...)
Angles are in degrees.

endheader
time	pelvis_tilt	pelvis_list	pelvis_rotation	pelvis_tx	pelvis_ty	pelvis_tz	hip_flexion_r	hip_adduction_r	hip_rotation_r	knee_angle_r	knee_angle_r_beta	ankle_angle_r	subtalar_angle_r	mtp_angle_r	hip_flexion_l	hip_adduction_l	hip_rotation_l	knee_angle_l	knee_angle_l_beta	ankle_angle_l	subtalar_angle_l	mtp_angle_l	lumbar_extension	lumbar_bending	lumbar_rotation	arm_flex_r	arm_add_r	arm_rot_r	elbow_flex_r	pro_sup_r	wrist_flex_r	wrist_dev_r	arm_flex_l	arm_add_l	arm_rot_l	elbow_flex_l	pro_sup_l	wrist_flex_l	wrist_dev_l
     20.54250000	     -2.82842391	     -6.85744667	     -3.17791210	      0.86159672	      0.92554091	      0.47795397	     17.24252567	      5.42773849	    -12.07838651	     17.41079849	     17.41079849	      4.91407834	     -0.94034356	     -4.57212880	      9.18205231	    -12.19415063	     -4.90757628	     47.60280325	     47.60280325	      7.80675107	    -16.71819096	    -13.20457909	     -8.07471977	      8.54410150	      2.27001573	     -1.44953666	    -11.33747339	    -13.07639641	     27.64257309	     46.53650968	      0.00000000	      0.00000000	     11.51119003	    -10.39298472	    -10.43540091	     57.64546244	     46.83280711	      0.00000000	      0.00000000
     20.55428571	     -2.70599431	     -7.05447610	     -2.90478746	      0.86167165	      0.92621966	      0.48022773	     16.42180302	      5.75023512	    -12.38117179	     17.08664724	     17.08664724	      5.27799827	     -0.71299082	     -4.68326053	     11.36656752	    -12.84623533	     -3.76871879	     51.79610680	     51.79610680	      5.29465459	    -17.14962616	    -12.82140555	     -8.24270609	      8.59804304	      2.37948479	      0.09548897	    -11.42416459	    -12.92624772	     28.47261727	     46.50202103	      0.00000000	      0.00000000	     11.01514792	     -9.96923774	    -10.08419827	     56.37871429	     46.78561006	      0.00000000	      0.00000000
     20.56607143	     -2.73054103	     -7.08882761	     -2.60468875	      0.86157512	      0.92665434	      0.48217900	     15.82812056	      5.85092643	    -12.76132519	     16.87116037	     16.87116037	      5.62983735	     -0.31378933	     -5.03347472	     13.83719073	    -13.08186322	     -2.37175577	     55.95345634	     55.95345634	      4.03209855	    -16.93594054	     -8.96358176	     -8.11473329	      8.53038176	      2.88235091	      0.50004567	    -11.94950818	    -10.73227451	     31.54213285	     46.20624119	      0.00000000	      0.00000000	     12.00779822	     -9.60141896	     -8.45156690	     50.85526027	     46.61825917	      0.00000000	      0.00000000
     20.57785714	     -2.67837368	     -7.23587525	     -2.31100162	      0.86129143	      0.92705249	      0.48412650	     15.16252099	      6.10754295	    -13.04358597	     16.63721052	     16.63721052	      5.96979880	     -0.14515231	     -5.12074359	     16.03792765	    -13.44599455	     -1.13379644	     59.41043430	     59.41043430	      1.78689771	    -17.15681460	     -8.20046186	     -8.20818129	      8.50099335	      2.86716321	      2.20873055	    -12.13003883	    -10.62976376	     32.41472959	     46.17645608	      0.00000000	      0.00000000	     11.37417763	     -9.24448511	     -8.16014251	     49.71855059	     46.57500595	      0.00000000	      0.00000000
     20.58964286	     -2.73918494	     -7.16284305	     -2.02767150	      0.86078663	      0.92729666	      0.48572132	     14.71585689	      6.06023108	    -13.41981203	     16.57889046	     16.57889046	      6.45007330	      0.32993723	     -5.27106482	     18.46820420	    -13.32777998	      0.18288801	     62.79719736	     62.79719736	      1.78990666	    -16.52906541	     -2.46599822	     -8.09480798	      8.32524319	      3.10416346	      3.35053724	    -12.62411980	     -8.98254492	     34.44653236	     45.99295911	      0.00000000	      0.00000000	     12.17024764	     -8.84441305	     -7.13004454	     44.42833107	     46.44611154	      0.00000000	      0.00000000
     20.60142857	     -2.74937095	     -7.25110160	     -1.77093272	      0.86017830	      0.92753333	      0.48745771	     14.17437007	      6.26657732	    -13.55494867	     16.40503408	     16.40503408	      6.79770650	      0.35199257	     -5.31353962	     20.55094414	    -13.51438512	      1.17402875	     65.25503949	     65.25503949	      0.29868220	    -16.72972492	     -1.69405458	     -8.14983645	      8.24692917	      3.01850547	      5.15894752	    -12.81980183	     -8.90314683	     35.59729387	     45.95479294	      0.00000000	      0.00000000	     11.38713393	     -8.56311302	     -6.86320230	     43.33960156	     46.40213136	      0.00000000	      0.00000000
     20.61321429	     -2.81184707	     -7.15420818	     -1.52378530	      0.85938720	      0.92778634	      0.48893716	     13.77615785	      6.23284570	    -13.68895355	     16.38380795	     16.38380795	      7.28302318	      0.48754186	     -5.15877512	     22.72077990	    -13.37542272	      2.06650384	     67.45043549	     67.45043549	      0.94755197	    -16.31172690	      3.33114593	     -8.11770781	      8.00493710	      3.25470092	      6.15638866	    -13.45420718	     -7.12699964	     38.47512256	     45.74401967	      0.00000000	      0.00000000	     11.95959700	     -8.18739917	     -5.86285543	     38.66847746	     46.27406302	      0.00000000	      0.00000000
     20.62500000	     -2.88474913	     -7.17402829	     -1.25336206	      0.85851695	      0.92803574	      0.49048258	     13.31490318	      6.37752706	    -13.73982897	     16.17954580	     16.17954580	      7.61322064	      0.39739287	     -5.12833101	     24.63991596	    -13.42147951	      2.76697455	     68.72925815	     68.72925815	      0.31398196	    -16.85687304	      3.95923472	     -8.12930224	      7.86166616	      2.98140041	      8.04603147	    -13.55674154	     -7.04989700	     39.87280017	     45.69852006	      0.00000000	      0.00000000	     11.03020577	     -8.05915934	     -5.62235812	     37.44753698	     46.22786276	      0.00000000	      0.00000000
     20.63678571	     -2.93633626	     -7.10032502	     -1.00908073	      0.85754867	      0.92839067	      0.49188227	     12.84162023	      6.42403157	    -13.70252631	     15.98877441	     15.98877441	      7.94575444	      0.24965114	     -5.01562489	     26.40438528	    -13.39521916	      3.18466924	     69.40639303	     69.40639303	      0.29669011	    -17.46706786	      5.09747373	     -8.17759730	      7.63482782	      2.64828384	      9.94324758	    -13.65075227	     -6.72645068	     41.66188131	     45.62546341	      0.00000000	      0.00000000	     10.32411476	     -7.94870988	     -5.27344153	     35.50169767	     46.16959045	      0.00000000	      0.00000000
     20.64857143	     -2.93971970	     -7.01470610	     -0.85797182	      0.85650409	      0.92883272	      0.49332338	     12.33790711	      6.46207838	    -13.62090619	     15.82873726	     15.82873726	      8.28353744	      0.21552109	     -5.03213247	     27.92785819	    -13.54452638	      3.16343338	     69.41105561	     69.41105561	      0.43731636	    -18.06291312	      5.40659359	     -8.34033202	      7.36615721	      3.18240465	     11.68610933	    -14.10514263	     -6.74486667	     42.56750026	     45.60370283	      0.00000000	      0.00000000	      9.61406553	     -7.50401259	     -5.12303588	     34.83590076	     46.13804761	      0.00000000	      0.00000000
     20.66035714	     -3.04182786	     -6.97269196	     -0.52297748	      0.85534573	      0.92923995	      0.49438391	     11.86871659	      6.57466552	    -13.43631636	     15.49559199	     15.49559199	      8.65839475	     -0.26683935	     -4.38890500	     29.70098969	    -13.46363298	      3.40486527	     69.15408876	     69.15408876	      2.53970649	    -18.44835139	     10.80037661	     -8.33639204	      7.21784364	      3.15267185	     12.51808268	    -14.81885219	     -4.98311014	     46.69321016	     45.37428502	      0.00000000	      0.00000000	     10.12127793	     -7.23193790	     -4.20205291	     29.87755623	     46.02494254	      0.00000000	      0.00000000
